<svg xmlns="http://www.w3.org/2000/svg" version="1.1" width="30" height="30" x="0" y="0" viewBox="0 0 24 24"
    fill="#e2e2e2">
    <g>
        <g>
            <path
                d="M12 6a1 1 0 0 0-1 1v5a1 1 0 0 0 .553.894l3.105 1.553a1 1 0 1 0 .895-1.789L13 11.382V7a1 1 0 0 0-1-1z">
            </path>
            <path fill-rule="evenodd"
                d="M22 12c0 5.523-4.477 10-10 10S2 17.523 2 12 6.477 2 12 2s10 4.477 10 10zm-2 0a8 8 0 1 1-16 0 8 8 0 0 1 16 0z">
            </path>
        </g>
    </g>
</svg>