<svg xmlns="http://www.w3.org/2000/svg" version="1.1" width="35" height="35" x="0" y="0" viewBox="0 0 64 64"
    fill="#e2e2e2">
    <g>
        <path
            d="M59.97 5.81a.603.603 0 0 0-.06-.19c-.01-.03 0-.05-.02-.08s-.04-.05-.06-.08c-.04-.06-.08-.11-.13-.16s-.09-.08-.14-.12-.11-.06-.16-.09a.664.664 0 0 0-.2-.06c-.03 0-.06-.03-.1-.03h-.08c-.07 0-.14 0-.21.02-.06.01-.12.03-.18.05-.03.01-.06.01-.09.02l-54 28.02a1.001 1.001 0 0 0 .14 1.84l17.58 5.86 7.82 17.6c.17.37.53.59.91.59.29 0 .57-.12.76-.35l7.9-9.34 13.81 8.55c.16.1.34.15.53.15a.992.992 0 0 0 .99-.9l5-51v-.09c0-.07 0-.13-.02-.2zm-6.73 4.3L22.75 38.86 7.56 33.8l45.69-23.69zM30.5 54.42l-6.3-14.18 28.63-26.99-20.65 30.19s0 .02-.01.03c-.04.06-.06.13-.08.2-.02.06-.05.11-.06.17v.03l-1.51 10.56zm1.98.28 1.29-9.05 4.17 2.58-5.47 6.46zm20.68.6L34.41 43.7 57.63 9.78l-4.46 45.53z">
        </path>
    </g>
</svg>